# xmcd
#
# Track frame offsets: 
#        183
#        14078
#        25825
#        37273
#        50793
#        66468
#        78645
#        89920
#        102965
#        117728
#
# Disc length: 1770 seconds
#
# Revision: 1
# Processed by: cddbd v1.5.2PL0 Copyright (c) Steve Scherf et al.
# Submitted via: ExactAudioCopy v0.99pb5
#
DISCID=9c06e80a
DTITLE=Billie Jo Spears - Outlaw Woman
DYEAR=1996
DGENRE=Country
TTITLE0=Why Must All The Good Times Be Mem'rys
TTITLE1=It's Not Easy
TTITLE2=Outlaw Woman
TTITLE3=Come Back When You Can Stay Forever
TTITLE4=Couldn't Love Have Picked A Better Place To Die
TTITLE5=I'm Gonna Love Lovin' You
TTITLE6=Wisdom Of A Fool
TTITLE7=Blue Orleans
TTITLE8=I Don't Want To Talk About It
TTITLE9=Something For Your Memory To Do
EXTD=
EXTT0=
EXTT1=
EXTT2=
EXTT3=
EXTT4=
EXTT5=
EXTT6=
EXTT7=
EXTT8=
EXTT9=
PLAYORDER=
